refGRF_2D
version=1
nRows=34
nColumns=19
inDegrees=no
endheader
time	ground_force_r_vx	ground_force_r_vy	ground_force_r_vz	ground_force_r_px	ground_force_r_py	ground_force_r_pz	ground_torque_r_x	ground_torque_r_y	ground_torque_r_z	ground_force_l_vx	ground_force_l_vy	ground_force_l_vz	ground_force_l_px	ground_force_l_py	ground_force_l_pz	ground_torque_l_x	ground_torque_l_y	ground_torque_l_z
      0.37700000	    -94.60919762	   1542.81284555	      0.00000000	     -2.17378202	      0.00000000	      0.00000000	     -0.07986414	     -1.97040716	      0.00000000	      0.00000000	      0.00000000	      0.00000000	      0.00000000	      0.00000000	      0.00000000	      0.00000000	      0.00000000	      0.00000000
      0.37800000	   -111.88792399	   1584.66229424	      0.00000000	     -2.17290213	      0.00000000	      0.00000000	     -0.11836496	     -1.12499995	      0.00000000	      0.00000000	      0.00000000	      0.00000000	      0.00000000	      0.00000000	      0.00000000	      0.00000000	      0.00000000	      0.00000000
      0.37900000	   -131.25160909	   1625.46525150	      0.00000000	     -2.17196966	      0.00000000	      0.00000000	     -0.16450296	     -0.17139716	      0.00000000	      0.00000000	      0.00000000	      0.00000000	      0.00000000	      0.00000000	      0.00000000	      0.00000000	      0.00000000	      0.00000000
      0.38000000	   -151.39202712	   1664.69890286	      0.00000000	     -2.17100749	      0.00000000	      0.00000000	     -0.22365060	      0.87967794	      0.00000000	      0.00000000	      0.00000000	      0.00000000	      0.00000000	      0.00000000	      0.00000000	      0.00000000	      0.00000000	      0.00000000
      0.38100000	   -171.09490075	   1701.88547058	      0.00000000	     -2.17003597	      0.00000000	      0.00000000	     -0.29919441	      2.01364052	      0.00000000	      0.00000000	      0.00000000	      0.00000000	      0.00000000	      0.00000000	      0.00000000	      0.00000000	      0.00000000	      0.00000000
      0.38200000	   -189.29300446	   1736.60175758	      0.00000000	     -2.16907188	      0.00000000	      0.00000000	     -0.39235827	      3.21346362	      0.00000000	      0.00000000	      0.00000000	      0.00000000	      0.00000000	      0.00000000	      0.00000000	      0.00000000	      0.00000000	      0.00000000
      0.38300000	   -205.10579253	   1768.50749061	      0.00000000	     -2.16812809	      0.00000000	      0.00000000	     -0.50228004	      4.46148972	      0.00000000	      0.00000000	      0.00000000	      0.00000000	      0.00000000	      0.00000000	      0.00000000	      0.00000000	      0.00000000	      0.00000000
      0.38400000	   -217.86956462	   1797.37869851	      0.00000000	     -2.16721382	      0.00000000	      0.00000000	     -0.62627400	      5.74085114	      0.00000000	      0.00000000	      0.00000000	      0.00000000	      0.00000000	      0.00000000	      0.00000000	      0.00000000	      0.00000000	      0.00000000
      0.38500000	   -227.15842730	   1823.12101750	      0.00000000	     -2.16633573	      0.00000000	      0.00000000	     -0.76023319	      7.03602859	      0.00000000	      0.00000000	      0.00000000	      0.00000000	      0.00000000	      0.00000000	      0.00000000	      0.00000000	      0.00000000	      0.00000000
      0.38600000	   -232.79016545	   1845.77759568	      0.00000000	     -2.16549981	      0.00000000	      0.00000000	     -0.89913863	      8.33321811	      0.00000000	      0.00000000	      0.00000000	      0.00000000	      0.00000000	      0.00000000	      0.00000000	      0.00000000	      0.00000000	      0.00000000
      0.38700000	   -234.81185057	   1865.52155646	      0.00000000	     -2.16471163	      0.00000000	      0.00000000	     -1.03767914	      9.62154734	      0.00000000	      0.00000000	      0.00000000	      0.00000000	      0.00000000	      0.00000000	      0.00000000	      0.00000000	      0.00000000	      0.00000000
      0.38800000	   -233.47082319	   1882.63147704	      0.00000000	     -2.16397447	      0.00000000	      0.00000000	     -1.17076015	     10.89312155	      0.00000000	      0.00000000	      0.00000000	      0.00000000	      0.00000000	      0.00000000	      0.00000000	      0.00000000	      0.00000000	      0.00000000
      0.38900000	   -229.17577134	   1897.46024661	      0.00000000	     -2.16328906	      0.00000000	      0.00000000	     -1.29384618	     12.14175788	      0.00000000	      0.00000000	      0.00000000	      0.00000000	      0.00000000	      0.00000000	      0.00000000	      0.00000000	      0.00000000	      0.00000000
      0.39000000	   -222.44912870	   1910.40910884	      0.00000000	     -2.16265446	      0.00000000	      0.00000000	     -1.40321463	     13.36206045	      0.00000000	      0.00000000	      0.00000000	      0.00000000	      0.00000000	      0.00000000	      0.00000000	      0.00000000	      0.00000000	      0.00000000
      0.39100000	   -213.87664528	   1921.89459049	      0.00000000	     -2.16206778	      0.00000000	      0.00000000	     -1.49617218	     14.54941841	      0.00000000	      0.00000000	      0.00000000	      0.00000000	      0.00000000	      0.00000000	      0.00000000	      0.00000000	      0.00000000	      0.00000000
      0.39200000	   -204.05656607	   1932.31375201	      0.00000000	     -2.16152425	      0.00000000	      0.00000000	     -1.57106745	     15.69915692	      0.00000000	      0.00000000	      0.00000000	      0.00000000	      0.00000000	      0.00000000	      0.00000000	      0.00000000	      0.00000000	      0.00000000
      0.39300000	   -193.55450390	   1942.01471363	      0.00000000	     -2.16101765	      0.00000000	      0.00000000	     -1.62718564	     16.80559658	      0.00000000	      0.00000000	      0.00000000	      0.00000000	      0.00000000	      0.00000000	      0.00000000	      0.00000000	      0.00000000	      0.00000000
      0.39400000	   -182.86941934	   1951.28001042	      0.00000000	     -2.16054067	      0.00000000	      0.00000000	     -1.66467700	     17.86249377	      0.00000000	      0.00000000	      0.00000000	      0.00000000	      0.00000000	      0.00000000	      0.00000000	      0.00000000	      0.00000000	      0.00000000
      0.39500000	   -172.40763917	   1960.32562706	      0.00000000	     -2.16008545	      0.00000000	      0.00000000	     -1.68438793	     18.86344254	      0.00000000	      0.00000000	      0.00000000	      0.00000000	      0.00000000	      0.00000000	      0.00000000	      0.00000000	      0.00000000	      0.00000000
      0.39600000	   -162.46458807	   1969.30048903	      0.00000000	     -2.15964415	      0.00000000	      0.00000000	     -1.68761209	     19.80210263	      0.00000000	      0.00000000	      0.00000000	      0.00000000	      0.00000000	      0.00000000	      0.00000000	      0.00000000	      0.00000000	      0.00000000
      0.39700000	   -153.21726161	   1978.28623007	      0.00000000	     -2.15920996	      0.00000000	      0.00000000	     -1.67587292	     20.67297914	      0.00000000	      0.00000000	      0.00000000	      0.00000000	      0.00000000	      0.00000000	      0.00000000	      0.00000000	      0.00000000	      0.00000000
      0.39800000	   -144.73033086	   1987.29951369	      0.00000000	     -2.15877813	      0.00000000	      0.00000000	     -1.65077337	     21.47223044	      0.00000000	      0.00000000	      0.00000000	      0.00000000	      0.00000000	      0.00000000	      0.00000000	      0.00000000	      0.00000000	      0.00000000
      0.39900000	   -136.96864371	   1996.29939603	      0.00000000	     -2.15834626	      0.00000000	      0.00000000	     -1.61381982	     22.19764103	      0.00000000	      0.00000000	      0.00000000	      0.00000000	      0.00000000	      0.00000000	      0.00000000	      0.00000000	      0.00000000	      0.00000000
      0.40000000	   -129.81761817	   2005.19840260	      0.00000000	     -2.15791278	      0.00000000	      0.00000000	     -1.56627952	     22.84757957	      0.00000000	      0.00000000	      0.00000000	      0.00000000	      0.00000000	      0.00000000	      0.00000000	      0.00000000	      0.00000000	      0.00000000
      0.40100000	   -123.10334665	   2013.87482617	      0.00000000	     -2.15747755	      0.00000000	      0.00000000	     -1.50908229	     23.42076873	      0.00000000	      0.00000000	      0.00000000	      0.00000000	      0.00000000	      0.00000000	      0.00000000	      0.00000000	      0.00000000	      0.00000000
      0.40200000	   -116.60902109	   2022.17881179	      0.00000000	     -2.15704244	      0.00000000	      0.00000000	     -1.44278046	     23.91767339	      0.00000000	      0.00000000	      0.00000000	      0.00000000	      0.00000000	      0.00000000	      0.00000000	      0.00000000	      0.00000000	      0.00000000
      0.40300000	   -110.09401532	   2029.93661840	      0.00000000	     -2.15661006	      0.00000000	      0.00000000	     -1.36753345	     24.33996795	      0.00000000	      0.00000000	      0.00000000	      0.00000000	      0.00000000	      0.00000000	      0.00000000	      0.00000000	      0.00000000	      0.00000000
      0.40400000	   -103.31453678	   2036.95978672	      0.00000000	     -2.15618266	      0.00000000	      0.00000000	     -1.28314747	     24.68909540	      0.00000000	      0.00000000	      0.00000000	      0.00000000	      0.00000000	      0.00000000	      0.00000000	      0.00000000	      0.00000000	      0.00000000
      0.40500000	    -96.04499116	   2043.07064360	      0.00000000	     -2.15576310	      0.00000000	      0.00000000	     -1.18922613	     24.96657351	      0.00000000	      0.00000000	      0.00000000	      0.00000000	      0.00000000	      0.00000000	      0.00000000	      0.00000000	      0.00000000	      0.00000000
      0.40600000	    -88.09730885	   2048.12318030	      0.00000000	     -2.15535412	      0.00000000	      0.00000000	     -1.08537006	     25.17478362	      0.00000000	      0.00000000	      0.00000000	      0.00000000	      0.00000000	      0.00000000	      0.00000000	      0.00000000	      0.00000000	      0.00000000
      0.40700000	    -79.33577725	   2052.01346346	      0.00000000	     -2.15495692	      0.00000000	      0.00000000	     -0.97135894	     25.31636225	      0.00000000	      0.00000000	      0.00000000	      0.00000000	      0.00000000	      0.00000000	      0.00000000	      0.00000000	      0.00000000	      0.00000000
      0.40800000	    -69.68571918	   2054.69349923	      0.00000000	     -2.15457220	      0.00000000	      0.00000000	     -0.84729824	     25.39400860	      0.00000000	      0.00000000	      0.00000000	      0.00000000	      0.00000000	      0.00000000	      0.00000000	      0.00000000	      0.00000000	      0.00000000
      0.40900000	    -59.13914810	   2056.17798769	      0.00000000	     -2.15420064	      0.00000000	      0.00000000	     -0.71375278	     25.41100659	      0.00000000	      0.00000000	      0.00000000	      0.00000000	      0.00000000	      0.00000000	      0.00000000	      0.00000000	      0.00000000	      0.00000000
      0.41000000	    -47.75582044	   2056.53469527	      0.00000000	     -2.15384234	      0.00000000	      0.00000000	     -0.57183937	     25.37128542	      0.00000000	      0.00000000	      0.00000000	      0.00000000	      0.00000000	      0.00000000	      0.00000000	      0.00000000	      0.00000000	      0.00000000
